<svg height='200' width='200'  fill="#fff" xmlns="http://www.w3.org/2000/svg" data-name="Layer 1" viewBox="0 0 100 100" x="0px" y="0px"><title>publictransp_icons</title><path d="M86.94,40.11H84.46V31.67c0-6.22-4.65-11.3-10.33-11.3H25.87c-5.68,0-10.33,5.09-10.33,11.3v8.44H13.06a2.14,2.14,0,0,0-2.14,2.14V53.83A2.14,2.14,0,0,0,13.06,56h2.48V89.68A2.48,2.48,0,0,0,18,92.16H28.93a2.48,2.48,0,0,0,2.48-2.48V84.47H68.6v5.21a2.48,2.48,0,0,0,2.48,2.48H82a2.48,2.48,0,0,0,2.48-2.48V56h2.48a2.14,2.14,0,0,0,2.14-2.14V42.25A2.14,2.14,0,0,0,86.94,40.11ZM20.25,48.68V35.9h27.4V60.49H20.25Zm0,31.08V65.2h59.5V79.76ZM52.35,60.49V35.9h27.4V60.49ZM25.87,25.07H74.13c2.91,0,5.38,2.76,5.6,6.12H20.27C20.48,27.83,23,25.07,25.87,25.07ZM23.81,70H38.29v5H23.81Zm37.83,0H76.11v5H61.64Z"></path></svg>
