<svg height='200' width='200'  fill="#fff" xmlns="http://www.w3.org/2000/svg" data-name="Layer 1" viewBox="0 0 100 100" x="0px" y="0px"><title>publictransp_icons</title><path d="M85.48,41.76H83.1V33.66c0-6-4.46-10.86-9.92-10.86H59.42L50.71,8.24H45.43L51.86,19H45.14a3.75,3.75,0,0,0-2.36.85L35.84,8.24H30.56L39.28,22.8H26.82c-5.46,0-9.92,4.88-9.92,10.86v8.11H14.52a2.06,2.06,0,0,0-2.06,2.06V54.94A2.06,2.06,0,0,0,14.52,57H16.9V89.38a2.38,2.38,0,0,0,2.38,2.38H29.76a2.38,2.38,0,0,0,2.38-2.38v-5H67.86v5a2.38,2.38,0,0,0,2.38,2.38H80.72a2.38,2.38,0,0,0,2.38-2.38V57h2.38a2.06,2.06,0,0,0,2.06-2.06V43.82A2.06,2.06,0,0,0,85.48,41.76ZM21.42,50V37.73H47.74V61.34H21.42Zm0,29.85v-14H78.58v14ZM52.26,61.34V37.73H78.58V61.34Zm-25.44-34H45.89l0-3.82h8.36l0,3.82h19c2.8,0,5.17,2.65,5.38,5.88H21.44C21.65,30,24,27.32,26.82,27.32Zm-2,43.18H38.75v4.77H24.85Zm36.33,0H75.08v4.77H61.18Z"></path></svg>
